<svg width="396" height="151.29230769230767" viewBox="0 0 390 149" class="looka-1j8o68f"><defs id="SvgjsDefs1582"></defs><g id="SvgjsG1583" featurekey="rootContainer" transform="matrix(1,0,0,1,0,0)" fill="#3f72af"><rect xmlns="http://www.w3.org/2000/svg" width="390" height="149" rx="10" ry="10"></rect></g><g id="SvgjsG1584" featurekey="uKAeQw-0" transform="matrix(1.7810041084625416,0,0,1.7810041084625416,19.965005128396715,11.022135130045148)" fill="#ffffff"><path d="M4.1895 11.0937 c-0.065107 -0.7487 -0.10092 -1.53 -0.10743 -2.3438 c0.78125 -0.039063 1.4421 0.019531 1.9824 0.17578 c0.67058 0.19531 0.97979 0.51106 0.92774 0.94727 c-0.13021 1.0352 -1.0645 1.4421 -2.8027 1.2207 z M23.418 21.5332 c-0.38411 -0.032549 -0.75846 0.022755 -1.123 0.16599 c-0.35156 0.13021 -0.61849 0.3125 -0.80078 0.54688 c-0.4362 0.55989 -0.56967 1.1067 -0.4004 1.6406 c0.16927 0.55339 0.61197 0.83984 1.3281 0.85938 c-0.013018 0.026045 0 0.055342 0.039063 0.087891 c0.039063 0.026045 0.068359 0.042324 0.087891 0.048838 c-0.0065136 0.0065136 -0.029297 0.016279 -0.068359 0.029297 l-0.058594 0.019531 c-2.5065 1.4648 -5.1433 0.66243 -7.9102 -2.4072 s-4.6094 -6.2419 -5.5273 -9.5166 c0.37109 -0.1237 0.625 -0.21484 0.76172 -0.27344 c0.59896 -0.26042 1.0481 -0.67709 1.3477 -1.25 c0.26042 -0.48177 0.39063 -1.0156 0.39063 -1.6016 c0 -0.13672 -0.0065136 -0.27669 -0.019531 -0.41992 c-0.019531 -0.20183 -0.05208 -0.40039 -0.097656 -0.5957 c-0.11719 -0.52734 -0.31901 -0.99932 -0.60547 -1.416 c-0.82683 -1.2109 -2.2493 -1.8164 -4.2676 -1.8164 l-6.4355 0 c0.56641 2.0703 0.72917 5.0781 0.48828 9.0234 c-0.071611 1.2435 -0.18229 2.5032 -0.33202 3.7793 c-0.045576 0.39714 -0.091152 0.77475 -0.13673 1.1328 c-0.013018 0.11719 -0.026035 0.22136 -0.039053 0.3125 c-0.0065136 0.032549 -0.013027 0.058594 -0.019541 0.078125 l0 0.029297 l5.3418 0 c-0.48177 -1.9727 -0.78775 -4.0657 -0.91796 -6.2793 c0.0065136 0.058594 0.035811 0.10742 0.087891 0.14648 c1.7058 4.069 3.6816 7.3601 5.9277 9.873 c3.0794 3.431 6.3411 4.9414 9.7852 4.5313 c1.3542 -0.15625 2.5813 -0.67708 3.6816 -1.5625 c1.3086 -1.0481 1.7708 -2.2136 1.3867 -3.4961 c-0.30599 -1.0286 -0.9375 -1.5853 -1.8945 -1.6699 z M20.5420328125 16.2207 c-0.39063 -0.26042 -0.63479 -0.59894 -0.73244 -1.0156 c-0.091143 -0.39714 -0.042314 -0.778 0.14648 -1.1426 c0.19531 -0.37761 0.49153 -0.64779 0.88867 -0.81056 c0.091143 0.37109 0.28971 0.67708 0.59569 0.91797 c0.30599 0.24739 0.6543 0.37109 1.0449 0.37109 c0.46875 0 0.86914 -0.16602 1.2012 -0.49805 c0.32552 -0.33203 0.48828 -0.72917 0.48828 -1.1914 c0 -0.35808 -0.10091 -0.68359 -0.30273 -0.97656 c-0.20833 -0.33854 -0.60221 -0.5957 -1.1816 -0.77148 c-0.63802 -0.19531 -1.2858 -0.19856 -1.9434 -0.0097656 c-0.5013 0.14323 -0.99287 0.39389 -1.4746 0.75196 c0.11067 -1.0091 0.45247 -1.8489 1.0254 -2.5195 c0.57942 -0.67708 1.2532 -1.0156 2.0215 -1.0156 c0.54688 0 1.0547 0.18229 1.5234 0.54688 c0.45573 0.35156 0.82357 0.82683 1.1035 1.4258 c0.097656 -1.1067 0.23112 -2.2168 0.40039 -3.3301 c0.05208 -0.35156 0.10742 -0.68034 0.16602 -0.98633 c0.013018 -0.097656 0.029297 -0.18555 0.048828 -0.26367 c0 -0.026045 0.0032521 -0.05209 0.0097656 -0.078135 l0 -0.019531 l0.0097656 0 l-10.732 0 c0.70964 2.7083 0.95378 5.7813 0.73242 9.2188 c-0.071611 1.1653 -0.19531 2.3015 -0.37109 3.4082 c-0.058594 0.40364 -0.1237 0.78125 -0.19531 1.1328 c-0.05208 0.27344 -0.10091 0.48503 -0.14648 0.63477 l10.674 0 c-0.44922 -1.3021 -0.70313 -2.9622 -0.76172 -4.9805 c-0.29297 0.50781 -0.64778 0.90495 -1.0645 1.1914 c-0.4362 0.29948 -0.9017 0.44922 -1.3965 0.44922 c-0.73567 0 -1.3281 -0.14648 -1.7773 -0.43945 z M38.017515625 16.0937 c-1.1067 0.65104 -2.1777 0.63149 -3.2129 -0.058612 c-0.96354 -0.63802 -1.5657 -1.5918 -1.8066 -2.8613 c-0.15625 -0.82031 -0.11394 -1.6179 0.12695 -2.3926 c0.26692 -0.85286 0.72591 -1.4812 1.377 -1.8848 c0.27995 -0.17578 0.52734 -0.30599 0.74219 -0.39063 c0.29297 -0.1237 0.56315 -0.18881 0.81055 -0.19532 c0.25391 0 0.49153 0.042314 0.71289 0.12695 c0.26692 0.097656 0.45572 0.24089 0.5664 0.42969 c0.078125 0.13672 0.12044 0.26367 0.12695 0.38086 l0 0 l0 -0.0097656 c-0.22136 -0.40364 -0.55664 -0.5957 -1.0059 -0.57617 c-0.52734 0.026045 -0.88867 0.28972 -1.084 0.79102 c-0.10417 0.27344 -0.074873 0.57617 0.087891 0.9082 c0.14974 0.30599 0.35481 0.53385 0.61523 0.68358 c0.51433 0.29297 1.0515 0.4069 1.6113 0.3418 c0.59245 -0.065107 1.071 -0.32227 1.4355 -0.77148 c0.36458 -0.4362 0.57942 -1.0905 0.64453 -1.9629 c0.097656 -1.3021 -0.42644 -2.2493 -1.5723 -2.8418 c-0.93099 -0.48177 -2.1224 -0.67708 -3.5742 -0.58594 c-1.1719 0.071611 -2.2559 0.46224 -3.252 1.1719 c-1.0286 0.72917 -1.8457 1.6536 -2.4512 2.7734 c-0.61198 1.1198 -0.92123 2.2754 -0.92774 3.4668 c-0.0065136 1.2891 0.21484 2.4577 0.66406 3.5059 c0.5013 1.1719 1.2468 2.0931 2.2363 2.7637 c1.4192 0.96354 3.0534 1.4128 4.9023 1.3477 c0.91146 -0.032549 1.7578 -0.24088 2.5391 -0.62499 c0.89844 -0.44271 1.5169 -1.0417 1.8555 -1.7969 c0.20183 -0.45573 0.27995 -1.0254 0.23438 -1.709 c-0.05208 -0.69661 -0.2181 -1.25 -0.49805 -1.6602 c-0.76823 0.79427 -1.403 1.3379 -1.9043 1.6309 z M47.5244421875 15.4297 c-0.41016 -0.69011 -0.61522 -1.5625 -0.61522 -2.6172 c0 -0.85286 0.17903 -1.6438 0.53711 -2.373 c0.42969 -0.88542 0.90169 -1.3672 1.416 -1.4453 c0.29297 -0.045576 0.58269 0.035801 0.86914 0.24413 c0.26692 0.20183 0.49479 0.48503 0.68358 0.84961 c0.22136 0.42317 0.39389 0.88216 0.51759 1.377 c0.11067 0.44922 0.16602 0.89844 0.16602 1.3477 c0 1.0547 -0.20508 1.9271 -0.61523 2.6172 c-0.39714 0.67058 -0.88867 1.0059 -1.4746 1.0059 c-0.59245 0 -1.0872 -0.33528 -1.4844 -1.0059 z M53.0127421875 7.49 c-0.55339 -0.74219 -1.2109 -1.3118 -1.9727 -1.709 c-0.82031 -0.42969 -1.6602 -0.5957 -2.5195 -0.49805 c-1.4778 0.16276 -2.8418 1.1394 -4.0918 2.9297 c-1.0286 1.4648 -1.543 3.0566 -1.543 4.7754 c0 2.1224 0.58919 3.877 1.7676 5.2637 c1.1589 1.3542 2.5879 2.0313 4.2871 2.0313 s3.125 -0.67708 4.2773 -2.0313 c1.1784 -1.3867 1.7676 -3.1413 1.7676 -5.2637 c0 -0.91146 -0.1595 -1.8196 -0.47852 -2.7246 c-0.35156 -0.99609 -0.84961 -1.9206 -1.4941 -2.7734 z M65.1953125 5.605 c0.084639 0.31901 0.19208 1.1264 0.32229 2.4219 c0.14974 1.4974 0.24414 2.8938 0.2832 4.1895 c-0.95052 -1.2239 -1.6146 -2.3145 -1.9922 -3.2715 c-0.33203 -0.82031 -0.57942 -1.9043 -0.74219 -3.252 l-5.4004 0 c0.57942 2.6953 0.70638 5.8821 0.38086 9.5605 c-0.097656 1.1523 -0.23763 2.2884 -0.41992 3.4082 c-0.058594 0.34505 -0.11719 0.67057 -0.17578 0.97655 c-0.019531 0.097656 -0.035811 0.18555 -0.048828 0.26367 l-0.0097656 0.039063 l0 0.029297 l-0.0097656 0.019531 l0 0.0097656 l4.9707 0 c-0.48177 -1.2239 -0.73242 -2.6367 -0.75195 -4.2383 c0 -0.51433 0.019531 -0.99932 0.058594 -1.4551 c0.019531 -0.16276 0.039063 -0.29623 0.058594 -0.4004 c0.013018 -0.097656 0.022783 -0.13997 0.029297 -0.12695 c-0.0065136 -0.0065136 0 -0.0032615 0.019531 0.0097561 l0.058594 0.058594 c0.071611 0.078125 0.15299 0.17253 0.24413 0.2832 c0.28646 0.34505 0.56966 0.74219 0.84961 1.1914 c0.39063 0.61198 0.73894 1.2663 1.0449 1.9629 c0.38411 0.87239 0.6901 1.7773 0.91796 2.7148 l5.3906 0 l-0.0097656 -0.0097656 l0 -0.019531 l-0.019531 -0.078125 c-0.013018 -0.097656 -0.029297 -0.20183 -0.048828 -0.3125 c-0.065107 -0.35156 -0.12695 -0.72591 -0.18555 -1.123 c-0.1888 -1.2695 -0.33203 -2.5195 -0.42969 -3.75 c-0.30599 -3.9388 -0.087891 -6.9727 0.6543 -9.1016 l-5.0391 0 z M80.6884671875 11.9629 l-0.36132 -0.20509 c-0.29297 -0.15625 -0.52409 -0.29297 -0.69336 -0.41016 c-0.50781 -0.35808 -0.82356 -0.77475 -0.94727 -1.25 c-0.14323 -0.55989 -0.065107 -1.0481 0.23438 -1.4648 c0.33203 -0.44922 0.81055 -0.60872 1.4355 -0.47852 c0.38411 0.071611 0.65755 0.17903 0.82031 0.32227 c0.15625 0.13672 0.29948 0.38086 0.42969 0.73242 c-0.13021 -0.23438 -0.3418 -0.39063 -0.63477 -0.46875 c-0.28646 -0.084639 -0.54361 -0.061855 -0.77147 0.06835 c-0.39063 0.22786 -0.56966 0.56966 -0.53711 1.0254 c0.032549 0.42969 0.2181 0.80078 0.55664 1.1133 c0.39063 0.36458 0.88542 0.52408 1.4844 0.47851 c0.61198 -0.05208 1.0808 -0.29622 1.4063 -0.73242 c0.24089 -0.31901 0.39389 -0.7487 0.45899 -1.2891 c0.045576 -0.41016 0.039063 -0.86263 -0.019531 -1.3574 c-0.14974 -1.2109 -0.8431 -2.0735 -2.0801 -2.5879 c-1.4388 -0.44271 -2.9427 -0.53385 -4.5117 -0.27343 c-0.97005 0.20183 -1.7839 0.62826 -2.4414 1.2793 c-0.70313 0.68359 -1.1133 1.5104 -1.2305 2.4805 c-0.091143 0.67708 -0.022783 1.3184 0.20508 1.9238 c0.24739 0.65104 0.65755 1.2142 1.2305 1.6895 c0.24089 0.20833 0.64128 0.45572 1.2012 0.74218 l0.35156 0.17578 l0.35156 0.17578 c0.26042 0.14323 0.48503 0.27344 0.67383 0.39063 c1.0612 0.65104 1.5625 1.4453 1.5039 2.3828 c-0.026045 0.41016 -0.094404 0.74544 -0.20508 1.0059 c-0.14323 0.33854 -0.36784 0.55664 -0.67383 0.6543 c-0.67708 0.22136 -1.1849 -0.048828 -1.5234 -0.81055 l0 0.0097656 l0.0097656 0.0097656 c0.0065136 0.0065136 0.0097656 0.0032615 0.0097656 -0.0097561 c0.3125 0.41667 0.66406 0.52409 1.0547 0.32227 c0.36458 -0.18229 0.57291 -0.51758 0.62499 -1.0059 c0.078125 -0.625 -0.10091 -1.1198 -0.53711 -1.4844 c-0.36458 -0.30599 -0.85938 -0.49153 -1.4844 -0.55664 c-0.87891 -0.084639 -1.6569 0.20508 -2.334 0.86914 c-0.70313 0.70313 -0.93099 1.5169 -0.68359 2.4414 c0.24739 0.91797 0.80729 1.6309 1.6797 2.1387 c0.79427 0.45573 1.7253 0.67709 2.793 0.66407 c1.8164 -0.013018 3.1706 -0.25391 4.0625 -0.72266 c0.95703 -0.5013 1.6406 -1.1719 2.0508 -2.0117 c0.54688 -1.1263 0.5013 -2.2591 -0.13672 -3.3984 c-0.53386 -0.9375 -1.3606 -1.7317 -2.4805 -2.3828 z M86.865234375 5.605 l-0.000019073 4.2676 c0.25391 -0.44271 0.58919 -0.80729 1.0059 -1.0938 c0.42969 -0.28646 0.85612 -0.42969 1.2793 -0.42969 c0.83984 0 1.4355 0.41016 1.7871 1.2305 c0.22786 0.53386 0.3418 1.2337 0.3418 2.0996 c0 0.30599 -0.013018 0.67383 -0.039063 1.1035 l-0.039063 0.53711 c-0.013018 0.21484 -0.022783 0.38086 -0.029297 0.49805 c-0.05208 0.91146 -0.17578 1.9466 -0.37109 3.1055 c-0.071611 0.44922 -0.16602 0.96354 -0.2832 1.543 l-0.29297 1.5332 l5.4199 0 c-0.045576 0 -0.14648 -0.48828 -0.30273 -1.4648 c-0.05208 -0.30599 -0.10742 -0.6608 -0.16602 -1.0645 l-0.039063 -0.21484 l-0.0097656 -0.097656 l-0.0097656 -0.078125 c-0.019531 -0.11719 -0.032549 -0.18555 -0.039063 -0.20508 c-0.20183 -1.2891 -0.35808 -2.8255 -0.46875 -4.6094 l-0.029297 -0.40039 l-0.019531 -0.40039 c-0.013018 -0.3125 -0.0065041 -0.58919 0.019541 -0.83008 c0.05208 -0.625 0.22135 -1.1263 0.5078 -1.5039 c0.55339 -0.70964 1.3411 -0.80729 2.3633 -0.29297 c0.51433 0.26042 0.97006 0.59245 1.3672 0.99609 l0 -4.2285 l-11.953 0 z M106.3134578125 11.2207 c-0.071611 -0.80729 -0.11068 -1.6504 -0.1172 -2.5293 c0.78125 -0.039063 1.4421 0.026045 1.9824 0.19531 c0.67058 0.21484 0.97979 0.55664 0.92774 1.0254 c-0.1237 1.1133 -1.0547 1.5495 -2.793 1.3086 z M114.6047578125 15.976600000000001 c-0.13672 0.20833 -0.30919 0.39388 -0.51752 0.55664 c-0.41667 0.33203 -0.81055 0.39388 -1.1816 0.18555 c-0.20183 -0.10417 -0.38412 -0.27995 -0.54688 -0.52734 c-0.1237 -0.17578 -0.25065 -0.4069 -0.38086 -0.69336 c0 -0.0065136 -0.045576 -0.11394 -0.13672 -0.32227 l-0.25391 -0.58594 l-0.27344 -0.57617 c-0.16276 -0.33203 -0.34831 -0.63477 -0.55664 -0.9082 c0.59245 -0.1888 0.99609 -0.33203 1.2109 -0.42969 c0.59896 -0.26042 1.0481 -0.67383 1.3477 -1.2402 c0.26042 -0.48177 0.39063 -1.0156 0.39063 -1.6016 c0 -0.13672 -0.0065136 -0.27669 -0.019531 -0.41992 c-0.019531 -0.20183 -0.05208 -0.40039 -0.097656 -0.5957 c-0.11719 -0.53386 -0.31901 -1.0091 -0.60547 -1.4258 c-0.82683 -1.2044 -2.2493 -1.8066 -4.2676 -1.8066 l-6.875 0 c0.70964 4.8177 0.70313 9.5638 -0.019531 14.238 c-0.0065136 0.032549 -0.013027 0.061846 -0.019541 0.087891 l0 0.029297 l5.7813 0 c-0.45573 -1.8815 -0.75521 -3.8835 -0.89845 -6.0059 l0.18555 0.058594 c0.60547 0.24739 1.0449 0.68033 1.3184 1.2988 c0.10417 0.24089 0.19531 0.52734 0.27344 0.85938 l0.087891 0.44922 l0.078125 0.43945 l0.068359 0.3418 l0.068359 0.3418 c0.05208 0.25391 0.10742 0.47852 0.16602 0.67383 c0.15625 0.48828 0.36458 0.88542 0.625 1.1914 c0.70313 0.83984 1.5788 1.1882 2.627 1.0449 c0.5013 -0.071611 0.95377 -0.26041 1.3574 -0.5664 c0.40364 -0.3125 0.71614 -0.70964 0.9375 -1.1914 c0.071611 -0.16927 0.13346 -0.3483 0.18554 -0.5371 c0.16276 -0.61849 0.17253 -1.2891 0.029297 -2.0117 z M123.80858125 5.605 l0.0097754 0.019513 c0.49479 0.95052 0.83334 2.5488 1.0156 4.7949 c0.026045 0.38411 0.0032615 0.8431 -0.06835 1.377 c-0.078125 0.63802 -0.20833 1.2012 -0.39063 1.6895 c-0.49479 1.3216 -1.2175 1.7546 -2.168 1.2988 c-0.47526 -0.22786 -0.81381 -0.66406 -1.0156 -1.3086 c-0.078125 -0.25391 -0.13997 -0.54688 -0.18555 -0.87891 c-0.026045 -0.22786 -0.048828 -0.51432 -0.068359 -0.85937 c-0.045576 -0.83984 0.03418 -1.9255 0.23926 -3.2568 s0.50944 -2.29 0.91309 -2.876 l-5.6543 0 c0.14974 0.37109 0.29947 0.8138 0.44921 1.3281 c0.1237 0.41667 0.22787 0.82357 0.31251 1.2207 c0.20183 0.87891 0.28646 2.0345 0.25392 3.4668 l-0.019531 0.89844 l-0.029297 0.89844 c-0.013018 0.70964 -0.0097656 1.3184 0.0097656 1.8262 c0.039063 0.76172 0.21484 1.5137 0.52734 2.2559 c0.34505 0.8138 0.90494 1.4583 1.6797 1.9336 c0.71614 0.4362 1.5332 0.68686 2.4512 0.75196 c0.90495 0.065107 1.7676 -0.058594 2.5879 -0.37109 c0.85938 -0.32552 1.5495 -0.8138 2.0703 -1.4648 c0.71614 -0.89844 1.1687 -1.9336 1.3574 -3.1055 c0.11719 -0.71614 0.1595 -1.7188 0.12695 -3.0078 c-0.045576 -2.1484 0.074863 -3.7907 0.36132 -4.9268 s0.45247 -1.7041 0.49805 -1.7041 l-5.2637 0 z M141.5087265625 16.0937 c-1.1067 0.65104 -2.1777 0.63149 -3.2129 -0.058612 c-0.96354 -0.63802 -1.5657 -1.5918 -1.8066 -2.8613 c-0.15625 -0.82031 -0.11394 -1.6179 0.12695 -2.3926 c0.26692 -0.85286 0.72591 -1.4812 1.377 -1.8848 c0.27995 -0.17578 0.52734 -0.30599 0.74219 -0.39063 c0.29297 -0.1237 0.56315 -0.18881 0.81055 -0.19532 c0.25391 0 0.49153 0.042314 0.71289 0.12695 c0.26692 0.097656 0.45572 0.24089 0.5664 0.42969 c0.078125 0.13672 0.12044 0.26367 0.12695 0.38086 l0 0 l0 -0.0097656 c-0.22136 -0.40364 -0.55664 -0.5957 -1.0059 -0.57617 c-0.52734 0.026045 -0.88867 0.28972 -1.084 0.79102 c-0.10417 0.27344 -0.074873 0.57617 0.087891 0.9082 c0.14974 0.30599 0.35481 0.53385 0.61523 0.68358 c0.51433 0.29297 1.0515 0.4069 1.6113 0.3418 c0.59245 -0.065107 1.071 -0.32227 1.4355 -0.77148 c0.36458 -0.4362 0.57942 -1.0905 0.64453 -1.9629 c0.097656 -1.3021 -0.42644 -2.2493 -1.5723 -2.8418 c-0.93099 -0.48177 -2.1224 -0.67708 -3.5742 -0.58594 c-1.1719 0.071611 -2.2559 0.46224 -3.252 1.1719 c-1.0286 0.72917 -1.8457 1.6536 -2.4512 2.7734 c-0.61198 1.1198 -0.92123 2.2754 -0.92774 3.4668 c-0.0065136 1.2891 0.21484 2.4577 0.66406 3.5059 c0.5013 1.1719 1.2468 2.0931 2.2363 2.7637 c1.4192 0.96354 3.0534 1.4128 4.9023 1.3477 c0.91146 -0.032549 1.7578 -0.24088 2.5391 -0.62499 c0.89844 -0.44271 1.5169 -1.0417 1.8555 -1.7969 c0.20183 -0.45573 0.27995 -1.0254 0.23438 -1.709 c-0.05208 -0.69661 -0.2181 -1.25 -0.49805 -1.6602 c-0.76823 0.79427 -1.403 1.3379 -1.9043 1.6309 z M146.376953125 5.605 l-0.000019073 4.2676 c0.25391 -0.44271 0.58919 -0.80729 1.0059 -1.0938 c0.42969 -0.28646 0.85612 -0.42969 1.2793 -0.42969 c0.83984 0 1.4355 0.41016 1.7871 1.2305 c0.22786 0.53386 0.3418 1.2337 0.3418 2.0996 c0 0.30599 -0.013018 0.67383 -0.039063 1.1035 l-0.039063 0.53711 c-0.013018 0.21484 -0.022783 0.38086 -0.029297 0.49805 c-0.05208 0.91146 -0.17578 1.9466 -0.37109 3.1055 c-0.071611 0.44922 -0.16602 0.96354 -0.2832 1.543 l-0.29297 1.5332 l5.4199 0 c-0.045576 0 -0.14648 -0.48828 -0.30273 -1.4648 c-0.05208 -0.30599 -0.10742 -0.6608 -0.16602 -1.0645 l-0.039063 -0.21484 l-0.0097656 -0.097656 l-0.0097656 -0.078125 c-0.019531 -0.11719 -0.032549 -0.18555 -0.039063 -0.20508 c-0.20183 -1.2891 -0.35808 -2.8255 -0.46875 -4.6094 l-0.029297 -0.40039 l-0.019531 -0.40039 c-0.013018 -0.3125 -0.0065041 -0.58919 0.019541 -0.83008 c0.05208 -0.625 0.22135 -1.1263 0.5078 -1.5039 c0.55339 -0.70964 1.3411 -0.80729 2.3633 -0.29297 c0.51433 0.26042 0.97006 0.59245 1.3672 0.99609 l0 -4.2285 l-11.953 0 z M161.3427735625 20 c0.74219 -6.3802 0.73894 -11.143 -0.0097656 -14.287 c-0.0065136 -0.032549 -0.0097656 -0.058594 -0.0097656 -0.078125 l-0.0097656 -0.029297 l0 0 l5.4395 0 c-0.90495 4.6289 -1.2272 8.1511 -0.9668 10.566 s0.41016 3.6914 0.44922 3.8281 l-4.8926 0 z M173.789090625 15.4297 c-0.41016 -0.69011 -0.61522 -1.5625 -0.61522 -2.6172 c0 -0.85286 0.17903 -1.6438 0.53711 -2.373 c0.42969 -0.88542 0.90169 -1.3672 1.416 -1.4453 c0.29297 -0.045576 0.58269 0.035801 0.86914 0.24413 c0.26692 0.20183 0.49479 0.48503 0.68358 0.84961 c0.22136 0.42317 0.39389 0.88216 0.51759 1.377 c0.11067 0.44922 0.16602 0.89844 0.16602 1.3477 c0 1.0547 -0.20508 1.9271 -0.61523 2.6172 c-0.39714 0.67058 -0.88867 1.0059 -1.4746 1.0059 c-0.59245 0 -1.0872 -0.33528 -1.4844 -1.0059 z M179.277390625 7.49 c-0.55339 -0.74219 -1.2109 -1.3118 -1.9727 -1.709 c-0.82031 -0.42969 -1.6602 -0.5957 -2.5195 -0.49805 c-1.4778 0.16276 -2.8418 1.1394 -4.0918 2.9297 c-1.0286 1.4648 -1.543 3.0566 -1.543 4.7754 c0 2.1224 0.58919 3.877 1.7676 5.2637 c1.1589 1.3542 2.5879 2.0313 4.2871 2.0313 s3.125 -0.67708 4.2773 -2.0313 c1.1784 -1.3867 1.7676 -3.1413 1.7676 -5.2637 c0 -0.91146 -0.1595 -1.8196 -0.47852 -2.7246 c-0.35156 -0.99609 -0.84961 -1.9206 -1.4941 -2.7734 z M191.4599609375 5.605 c0.084639 0.31901 0.19208 1.1264 0.32229 2.4219 c0.14974 1.4974 0.24414 2.8938 0.2832 4.1895 c-0.95052 -1.2239 -1.6146 -2.3145 -1.9922 -3.2715 c-0.33203 -0.82031 -0.57942 -1.9043 -0.74219 -3.252 l-5.4004 0 c0.57942 2.6953 0.70638 5.8821 0.38086 9.5605 c-0.097656 1.1523 -0.23763 2.2884 -0.41992 3.4082 c-0.058594 0.34505 -0.11719 0.67057 -0.17578 0.97655 c-0.019531 0.097656 -0.035811 0.18555 -0.048828 0.26367 l-0.0097656 0.039063 l0 0.029297 l-0.0097656 0.019531 l0 0.0097656 l4.9707 0 c-0.48177 -1.2239 -0.73242 -2.6367 -0.75195 -4.2383 c0 -0.51433 0.019531 -0.99932 0.058594 -1.4551 c0.019531 -0.16276 0.039063 -0.29623 0.058594 -0.4004 c0.013018 -0.097656 0.022783 -0.13997 0.029297 -0.12695 c-0.0065136 -0.0065136 0 -0.0032615 0.019531 0.0097561 l0.058594 0.058594 c0.071611 0.078125 0.15299 0.17253 0.24413 0.2832 c0.28646 0.34505 0.56966 0.74219 0.84961 1.1914 c0.39063 0.61198 0.73894 1.2663 1.0449 1.9629 c0.38411 0.87239 0.6901 1.7773 0.91796 2.7148 l5.3906 0 l-0.0097656 -0.0097656 l0 -0.019531 l-0.019531 -0.078125 c-0.013018 -0.097656 -0.029297 -0.20183 -0.048828 -0.3125 c-0.065107 -0.35156 -0.12695 -0.72591 -0.18555 -1.123 c-0.1888 -1.2695 -0.33203 -2.5195 -0.42969 -3.75 c-0.30599 -3.9388 -0.087891 -6.9727 0.6543 -9.1016 l-5.0391 0 z"></path></g><g id="SvgjsG1585" featurekey="uKAeQw-1" transform="matrix(3.816842606743622,0,0,3.816842606743622,20.00000091000619,51.17850905043277)" fill="#ffffff"><path d="M4.6387 15.4297 c-0.41016 -0.69011 -0.61522 -1.5625 -0.61522 -2.6172 c0 -0.85286 0.17903 -1.6438 0.53711 -2.373 c0.42969 -0.88542 0.90169 -1.3672 1.416 -1.4453 c0.29297 -0.045576 0.58269 0.035801 0.86914 0.24413 c0.26692 0.20183 0.49479 0.48503 0.68358 0.84961 c0.22136 0.42317 0.39389 0.88216 0.51759 1.377 c0.11067 0.44922 0.16602 0.89844 0.16602 1.3477 c0 1.0547 -0.20508 1.9271 -0.61523 2.6172 c-0.39714 0.67058 -0.88867 1.0059 -1.4746 1.0059 c-0.59245 0 -1.0872 -0.33528 -1.4844 -1.0059 z M10.127 7.49 c-0.55339 -0.74219 -1.2109 -1.3118 -1.9727 -1.709 c-0.82031 -0.42969 -1.6602 -0.5957 -2.5195 -0.49805 c-1.4778 0.16276 -2.8418 1.1394 -4.0918 2.9297 c-1.0286 1.4648 -1.543 3.0566 -1.543 4.7754 c0 2.1224 0.58919 3.877 1.7676 5.2637 c1.1589 1.3542 2.5879 2.0313 4.2871 2.0313 s3.125 -0.67708 4.2773 -2.0313 c1.1784 -1.3867 1.7676 -3.1413 1.7676 -5.2637 c0 -0.91146 -0.1595 -1.8196 -0.47852 -2.7246 c-0.35156 -0.99609 -0.84961 -1.9206 -1.4941 -2.7734 z M21.0888703125 14.1699 c0.30599 0.24739 0.65427 0.37111 1.0449 0.37111 c0.46875 0 0.86914 -0.16602 1.2012 -0.49805 c0.32552 -0.33203 0.48828 -0.72917 0.48828 -1.1914 c0 -0.35808 -0.10091 -0.68359 -0.30273 -0.97656 c-0.20833 -0.33203 -0.60221 -0.58919 -1.1816 -0.77148 c-0.63802 -0.19531 -1.2858 -0.19856 -1.9434 -0.0097656 c-0.5013 0.14323 -0.99287 0.39389 -1.4746 0.75196 c0.11067 -1.0091 0.45247 -1.8489 1.0254 -2.5195 c0.57942 -0.67708 1.2532 -1.0156 2.0215 -1.0156 c0.54688 0 1.0547 0.18229 1.5234 0.54688 c0.45573 0.35156 0.82357 0.82683 1.1035 1.4258 c0.097656 -1.1067 0.23112 -2.2168 0.40039 -3.3301 c0.05208 -0.35156 0.10742 -0.68034 0.16602 -0.98633 c0.013018 -0.097656 0.029297 -0.18555 0.048828 -0.26367 c0 -0.026045 0.0032521 -0.05209 0.0097656 -0.078135 l0 -0.019531 l0.0097656 0 l-10.732 0 c0.70964 2.7083 0.95378 5.7813 0.73242 9.2188 c-0.071611 1.1653 -0.19531 2.3015 -0.37109 3.4082 c-0.058594 0.40364 -0.1237 0.78125 -0.19531 1.1328 c-0.05208 0.27344 -0.10091 0.48503 -0.14648 0.63477 l6.084 0 c-0.13672 -0.15625 -0.3125 -0.39388 -0.52734 -0.71289 c-0.60547 -0.88542 -0.92773 -1.9629 -0.9668 -3.2324 c-0.05208 -1.4714 0.41016 -2.4056 1.3867 -2.8027 c0.091143 0.37109 0.28971 0.67708 0.59569 0.91797 z M44.6928359375 20 c-0.039063 -0.18229 -0.078087 -0.54363 -0.11715 -1.084 c-0.045576 -0.59896 -0.074873 -1.2207 -0.087891 -1.8652 c-0.039063 -1.7253 0.042314 -2.9622 0.24414 -3.7109 l-3.8574 0 c0.18229 0.98311 0.30925 2.028 0.38086 3.1348 c-0.72917 -0.1237 -1.3704 -0.50456 -1.9238 -1.1426 c-0.54036 -0.61849 -0.89192 -1.3477 -1.0547 -2.1875 c-0.15625 -0.82031 -0.11394 -1.6146 0.12695 -2.3828 c0.26692 -0.85286 0.72591 -1.4812 1.377 -1.8848 c0.27995 -0.17578 0.52734 -0.30599 0.74219 -0.39063 c0.29297 -0.1237 0.56315 -0.18555 0.81055 -0.18555 c0.25391 -0.0065136 0.49153 0.032549 0.71289 0.11719 c0.26692 0.097656 0.45572 0.24089 0.5664 0.42969 c0.078125 0.13672 0.11719 0.25716 0.11719 0.36133 c-0.22136 -0.39714 -0.55339 -0.58269 -0.99609 -0.55664 c-0.52734 0.019531 -0.88867 0.27995 -1.084 0.78125 c-0.10417 0.27344 -0.074873 0.57617 0.087891 0.9082 c0.14974 0.30599 0.35481 0.5306 0.61523 0.67383 c0.51433 0.29297 1.0515 0.41016 1.6113 0.35156 c0.59245 -0.065107 1.071 -0.32227 1.4355 -0.77148 c0.36458 -0.44271 0.57942 -1.0938 0.64453 -1.9531 c0.097656 -1.3021 -0.42644 -2.2493 -1.5723 -2.8418 c-0.93099 -0.48177 -2.1224 -0.67708 -3.5742 -0.58594 c-1.1784 0.071611 -2.2624 0.45898 -3.252 1.1621 c-1.0286 0.72917 -1.8457 1.6536 -2.4512 2.7734 c-0.61198 1.1198 -0.92123 2.2722 -0.92774 3.457 c-0.0065136 1.3411 0.20182 2.5293 0.62499 3.5645 c0.77474 2.5521 3.2324 3.8281 7.373 3.8281 l3.4277 0 z M54.433590625 9.414 c0.5013 1.4519 0.88217 2.8157 1.1426 4.0918 c-0.72917 0.25391 -1.5039 0.31901 -2.3242 0.19531 c0.26692 -1.3347 0.6608 -2.7637 1.1816 -4.2871 z M61.278890625 19.9999904633 c-0.013018 -0.058594 -0.55177 -1.6341 -1.6162 -4.7266 s-1.4339 -6.3151 -1.1084 -9.668 l-8.2324 0 c0.13021 3.8802 -0.28972 7.2347 -1.2598 10.063 s-1.4616 4.2725 -1.4746 4.3311 l5.7129 0 c-0.3125 -0.89192 -0.45247 -1.9563 -0.41992 -3.1934 c1.1979 0.34505 2.2331 0.319 3.1055 -0.078135 c0.039063 1.2695 -0.097656 2.3601 -0.41016 3.2715 l5.7031 0 z M64.0966778125 5.645 l0 4.707 c0.29297 -0.53386 0.76823 -0.9082 1.4258 -1.123 c0.69661 -0.22786 1.364 -0.17578 2.002 0.15625 c0.52734 0.27995 0.74219 0.89844 0.64453 1.8555 c-0.091143 0.82683 -0.40364 1.8555 -0.9375 3.0859 c-1.0742 2.4479 -2.2591 4.3392 -3.5547 5.6738 l11.514 0 l0 -3.2129 l0 -3.2129 c-0.24739 0.85286 -0.55664 1.5202 -0.92773 2.002 c-0.50781 0.65755 -1.1133 0.93424 -1.8164 0.83007 c-0.82683 -0.11067 -1.1784 -0.73893 -1.0547 -1.8848 c0.097656 -0.93099 0.49805 -2.1582 1.2012 -3.6816 c0.53386 -1.1589 1.1719 -2.3535 1.9141 -3.584 c0.27995 -0.46224 0.53061 -0.85286 0.75196 -1.1719 c0.20183 -0.29297 0.31901 -0.43945 0.35156 -0.43945 l-11.514 0 z M84.8535125 9.414 c0.5013 1.4519 0.88217 2.8157 1.1426 4.0918 c-0.72917 0.25391 -1.5039 0.31901 -2.3242 0.19531 c0.26692 -1.3347 0.6608 -2.7637 1.1816 -4.2871 z M91.6988125 19.9999904633 c-0.013018 -0.058594 -0.55177 -1.6341 -1.6162 -4.7266 s-1.4339 -6.3151 -1.1084 -9.668 l-8.2324 0 c0.13021 3.8802 -0.28972 7.2347 -1.2598 10.063 s-1.4616 4.2725 -1.4746 4.3311 l5.7129 0 c-0.3125 -0.89192 -0.45247 -1.9563 -0.41992 -3.1934 c1.1979 0.34505 2.2331 0.319 3.1055 -0.078135 c0.039063 1.2695 -0.097656 2.3601 -0.41016 3.2715 l5.7031 0 z"></path></g></svg>